# xmcd CD database file
#
# Track frame offsets:
#	150
#	26833
#	50763
#	70903
#	92292
#	107435
#	127611
#	155984
#	173449
#	192605
#	214570
#	239750
#	256048
#
# Disc length: 3742 seconds
#
# Revision: 0
# Processed by: cddbd v1.5.2PL0 Copyright (c) Steve Scherf et al.
# Submitted via: CDex 1.51
#
DISCID=ac0e9c0d
DTITLE=Keith Urban - Love, Pain and the whole crazy thing
DYEAR=2006
DGENRE=Country
TTITLE0=Once in a Livetime
TTITLE1=Shine
TTITLE2=I Told you so
TTITLE3=I can't stop loving you
TTITLE4=Won't let you down
TTITLE5=Faster Car
TTITLE6=Stupid Boy
TTITLE7=Used to the pain
TTITLE8=Raise the Barn
TTITLE9=Good made Woman
TTITLE10=Tu Companaía
TTITLE11=Everybody
TTITLE12=Got it  right this time
EXTD=YEAR: 2006
EXTT0=
EXTT1=
EXTT2=
EXTT3=
EXTT4=
EXTT5=
EXTT6=
EXTT7=
EXTT8=
EXTT9=
EXTT10=
EXTT11=
EXTT12=
PLAYORDER=
